pedal_clip_forces.mot
version=1
nRows=160
nColumns=4
inDegrees=yes
endheader
time	PedalClip_calcn_r_Fx	PedalClip_calcn_r_Fy	PedalClip_calcn_r_Fz
0.51775059	-53.3490120180702	-136.848192721428	-0
0.51820741	-53.4078287550787	-136.678467043313	-0
0.51866422	-53.4659034463759	-136.508200346578	-0
0.51912104	-53.5231731377333	-136.33767828973	-0
0.51957786	-53.5796037269094	-136.167072744675	-0
0.52003468	-53.6351725522509	-135.996505463893	-0
0.52049149	-53.6898489271691	-135.826119412593	-0
0.52094831	-53.7436196890515	-135.655930710611	-0
0.52140513	-53.7964497396142	-135.485900499378	-0
0.52186194	-53.8482569558374	-135.316010648521	-0
0.52231876	-53.8990219211832	-135.146299373318	-0
0.52277558	-53.9487841342872	-134.976768784914	-0
0.5232324	-53.9975662161242	-134.807385593695	-0
0.52368921	-54.0453059686784	-134.638223023594	-0
0.52414603	-54.0919424650289	-134.469602798608	-0
0.52460285	-54.1375456298825	-134.301537546559	-0
0.52505967	-54.1822248380654	-134.133873133149	-0
0.52551648	-54.226087831559	-133.966494480246	-0
0.5259733	-54.2692948496056	-133.798918008422	-0
0.52643012	-54.3119972708416	-133.63043143059	-0
0.52688693	-54.3542108792401	-133.460701733802	-0
0.52732056	-54.3958888172803	-133.289747457839	-0
0.52788107	-54.4370119321746	-133.117446076571	-0
0.5283173	-54.4775074710209	-132.943862522463	-0
0.52890225	-54.5173091060277	-132.769147810534	-0
0.52952323	-54.5564080803069	-132.593189340727	-0
0.53014421	-54.5947897870673	-132.41585557061	-0
0.53056266	-54.6323426499771	-132.237319198233	-0
0.53114503	-54.6688703228089	-132.057985278687	-0
0.53148097	-54.7042104443813	-131.8782615894	-0
0.53187972	-54.7383178001191	-131.698239305739	-0
0.53246757	-54.7711747575781	-131.518145508909	-0
0.53305542	-54.8027725662508	-131.338293487097	-0
0.53350989	-54.8331588707994	-131.158726711258	-0
0.53417055	-54.8624041267649	-130.979377270173	-0
0.53457063	-54.8905204019626	-130.80051912997	-0
0.53497071	-54.9174372600088	-130.622714990025	-0
0.53513763	-54.9431307212953	-130.446166936397	-0
0.5355237	-54.9675848242162	-130.270928038631	-0
0.53599055	-54.9907638810507	-130.097040455479	-0
0.5364574	-55.0126389152507	-129.92458652167	-0
0.53661174	-55.0332251410947	-129.753815817878	-0
0.53701257	-55.0524773714137	-129.584858158368	-0
0.53748432	-55.0702439663288	-129.417914644344	-0
0.53795608	-55.086515074436	-129.253658458284	-0
0.53831279	-55.1014482093074	-129.092324560064	-0
0.53881176	-55.1151898847181	-128.933289965585	-0
0.53931073	-55.1277875949816	-128.776197528489	-0
0.53958833	-55.139380386342	-128.620044156001	-0
0.54029414	-55.1500382836493	-128.463911299576	-0
0.54069835	-55.1598473491557	-128.307391868326	-0
0.54110257	-55.1690480283879	-128.148908231461	-0
0.54126914	-55.1777908162014	-127.986676380225	-0
0.54164897	-55.1860253151851	-127.819930571204	-0
0.54212727	-55.1936669160914	-127.648166682776	-0
0.54260558	-55.2005865803221	-127.471450170089	-0
0.54282011	-55.206637751229	-127.289996432053	-0
0.54327576	-55.2117615993926	-127.103207089697	-0
0.54373824	-55.2158841586493	-126.911193992906	-0
0.54420073	-55.2187853605292	-126.715021161157	-0
0.5445357	-55.2203079018043	-126.515392433542	-0
0.54529989	-55.2203840506442	-126.312716151574	-0
0.54606409	-55.2191196033481	-126.106918780227	-0
0.54682828	-55.2167350924502	-125.897338707106	-0
0.54759248	-55.2133576065877	-125.684012618663	-0
0.54811264	-55.2089794666689	-125.467885414903	-0
0.5486328	-55.2035286388169	-125.249922591336	-0
0.54908237	-55.1969421910941	-125.030816626162	-0
0.54956228	-55.1891315668282	-124.811458962615	-0
0.55000923	-55.1801354238724	-124.592482809849	-0
0.55045619	-55.1700840579445	-124.373794934143	-0
0.55082824	-55.1589133693461	-124.15579612207	-0
0.55140828	-55.1464766860287	-123.939212596338	-0
0.55198832	-55.1327081749941	-123.723775833689	-0
0.55236755	-55.1174756700389	-123.509302923005	-0
0.55285114	-55.1006432108044	-123.296082035119	-0
0.55333473	-55.082209336068	-123.084295193657	-0
0.55371754	-55.062269323447	-122.873983327389	-0
0.55425006	-55.0408582081861	-122.665202188158	-0
0.55478259	-55.0179578466668	-122.457875557191	-0
0.55510679	-54.9935491196603	-122.25157729342	-0
0.55576147	-54.9676455633993	-122.045572758489	-0
0.55641615	-54.9402515955811	-121.839176781228	-0
0.55681825	-54.9113317966662	-121.632074572531	-0
0.55731949	-54.8809005886395	-121.42397035879	-0
0.55782073	-54.849091044934	-121.214435090412	-0
0.55812932	-54.8159116874941	-121.003725744244	-0
0.55892436	-54.7813333131305	-120.791953490635	-0
0.55934206	-54.7453695464972	-120.578771254424	-0
0.55975977	-54.7079773257378	-120.364123154943	-0
0.56015962	-54.669059155864	-120.148427170684	-0
0.5608305	-54.6286580325979	-119.931608986594	-0
0.56150139	-54.5868643493763	-119.713646632377	-0
0.56189835	-54.5436312806433	-119.494910121473	-0
0.56240367	-54.4989154262556	-119.275548231545	-0
0.56290899	-54.4527244311653	-119.055449161509	-0
0.56330245	-54.4051181882028	-118.834510748519	-0
0.56388782	-54.3560911716914	-118.612784505891	-0
0.56447319	-54.305579456311	-118.390282216294	-0
0.56484785	-54.2535235510963	-118.167149614601	-0
0.56540184	-54.1998642211976	-117.943457986588	-0
0.56595583	-54.1445513879239	-117.719033090095	-0
0.56634795	-54.0876033005406	-117.493753556733	-0
0.56692248	-54.0289908917731	-117.267646716448	-0
0.56749701	-53.9686406218153	-117.040650329204	-0
0.56787729	-53.9065366161342	-116.812897940551	-0
0.56846045	-53.8426653655635	-116.584445326888	-0
0.5690436	-53.7769860349	-116.354976280672	-0
0.56943853	-53.7095295824048	-116.124155277031	-0
0.57001922	-53.6402730707583	-115.891722122072	-0
0.57059991	-53.5691333985328	-115.657279333321	-0
0.57098913	-53.4960928863542	-115.42074532016	-0
0.57158992	-53.4210949655919	-115.182331511329	-0
0.5721907	-53.344002549766	-114.942299202951	-0
0.57258965	-53.2647797561396	-114.700666346917	-0
0.57318729	-53.1835195079092	-114.457012478456	-0
0.57378493	-53.1001783796726	-114.211412926525	-0
0.57418264	-53.014691656661	-113.964052233796	-0
0.57479855	-52.9270384569569	-113.714784488171	-0
0.57541446	-52.8370958965098	-113.463709044902	-0
0.57581868	-52.7447850634131	-113.210985747053	-0
0.57643882	-52.6502301697721	-112.956270817956	-0
0.57705895	-52.5534962301922	-112.699221942724	-0
0.57746489	-52.4544219778511	-112.439466928955	-0
0.57809915	-52.3528137978145	-112.177010834931	-0
0.5787334	-52.2485366615957	-111.911678969338	-0
0.57914418	-52.1415383132489	-111.642863642195	-0
0.57979028	-52.0317525856377	-111.370370484043	-0
0.58043638	-51.9190481473375	-111.094765295217	-0
0.58085067	-51.8033617044462	-110.816219307031	-0
0.5815104	-51.684621948622	-110.535091107608	-0
0.58217013	-51.5627823771887	-110.251698583119	-0
0.58258876	-51.4376857697815	-109.966221804066	-0
0.58326588	-51.3093825608597	-109.678150329157	-0
0.58394301	-51.1778530434892	-109.387264500373	-0
0.58436603	-51.0429719044809	-109.093473557992	-0
0.58506361	-50.9048115027373	-108.796221200664	-0
0.58576118	-50.7633921245556	-108.495358335403	-0
0.58618886	-50.6186721972075	-108.190794001976	-0
0.58691665	-50.470783837912	-107.882032003718	-0
0.58764445	-50.319734317818	-107.569044652027	-0
0.58807741	-50.1655776751743	-107.25121115256	-0
0.58887537	-50.0083607370537	-106.928338826409	-0
0.58967333	-49.8480889243961	-106.600731275078	-0
0.59013334	-49.6848548900006	-106.267908259151	-0
0.59088164	-49.5186907108961	-105.929513638576	-0
0.59140004	-49.3493952913221	-105.586309373669	-0
0.59191845	-49.1768922512106	-105.2387213899	-0
0.59237349	-49.001107432968	-104.887354860535	-0
0.59346884	-48.8219684010019	-104.532677781792	-0
0.59400636	-48.639379640988	-104.174716847872	-0
0.59454388	-48.4533558178931	-103.813541582537	-0
0.59529778	-48.2638943837661	-103.450155631235	-0
0.59585207	-48.0709899998391	-103.085370209651	-0
0.59655938	-47.8746486936897	-102.719676688573	-0
0.59724123	-47.6747870909678	-102.354308747372	-0
0.59819205	-47.4714714837292	-101.990451500201	-0
0.59873029	-47.2647811939841	-101.628801830555	-0
0.59926853	-47.0549026706463	-101.26953838943	-0
0.60029179	-46.8419442817325	-100.912468602474	-0
